<?xml version="1.0" encoding="iso-8859-1"?>
<!-- Uploaded to: SVG Repo, www.svgrepo.com, Generator: SVG Repo Mixer Tools -->
<svg fill="#000000" height="800px" width="800px" version="1.1" id="Capa_1" xmlns="http://www.w3.org/2000/svg" xmlns:xlink="http://www.w3.org/1999/xlink" 
	 viewBox="0 0 351.472 351.472" xml:space="preserve">
<path id="XMLID_1015_" d="M323.188,340.068c-6.809-48.037-35.69-106.877-52.3-137.676c-4.236-7.854-5.836-17.052-4.506-25.901
	l7.226-48.071l31.651,2.668l15.991-71.614c2.564-11.487,0.25-23.665-6.352-33.409c-6.601-9.744-17.05-16.41-28.669-18.289L238.139,0
	l-24.48,39.701c-8.174,13.256-22.351,21.17-37.923,21.17c-15.572-0.001-29.749-7.914-37.922-21.169L113.333,0L65.24,7.775
	C53.621,9.654,43.171,16.32,36.57,26.064c-6.601,9.745-8.916,21.922-6.351,33.409l15.992,71.614l31.651-2.668l7.225,48.071
	c1.33,8.85-0.27,18.048-4.506,25.901c-16.61,30.799-45.491,89.64-52.298,137.676l-1.616,11.403h298.138L323.188,340.068z
	 M50.105,331.472c9.363-44.654,36.244-97.639,48.08-119.585c6.277-11.64,8.649-25.266,6.681-38.368l-10.01-66.603l-32.93,2.776
	L49.739,55.114c-1.39-6.222-0.186-12.555,3.39-17.833c3.575-5.277,9.01-8.744,15.303-9.762l34.894-5.643l17.463,28.321
	c11.842,19.206,32.383,30.672,54.946,30.673c0.001,0-0.001,0,0,0c22.562,0,43.104-11.468,54.946-30.673l17.463-28.321l34.895,5.643
	c6.293,1.018,11.728,4.484,15.303,9.762c3.575,5.278,4.779,11.611,3.39,17.833l-12.187,54.578l-32.929-2.776l-10.011,66.603
	c-1.97,13.103,0.402,26.729,6.68,38.368c11.836,21.946,38.717,74.93,48.081,119.585H50.105z"/>
</svg>