<?xml version="1.0" encoding="iso-8859-1"?>
<!-- Uploaded to: SVG Repo, www.svgrepo.com, Generator: SVG Repo Mixer Tools -->
<svg fill="#000000" height="800px" width="800px" version="1.1" id="Capa_1" xmlns="http://www.w3.org/2000/svg" xmlns:xlink="http://www.w3.org/1999/xlink" 
	 viewBox="0 0 366.129 366.129" xml:space="preserve">
<path id="XMLID_977_" d="M42.015,343.064h282.1l-20-200h62.015V72.597c0-27.312-22.22-49.532-49.532-49.532h-47.675l-29.429,29.429
	c-15.072,15.073-35.112,23.374-56.429,23.374s-41.356-8.301-56.429-23.374L97.207,23.064H49.532C22.22,23.064,0,45.285,0,72.597
	v70.468h62.015L42.015,343.064z M20,123.064V72.597c0-16.284,13.248-29.532,29.532-29.532h39.39l23.571,23.571
	c38.914,38.912,102.229,38.912,141.143,0l23.571-23.571h39.39c16.284,0,29.532,13.248,29.532,29.532v50.468h-64.114l20,200h-237.9
	l20-200H20z"/>
</svg>